<svg version="1.0" xmlns="http://www.w3.org/2000/svg"
 width="834.000000pt" height="834.000000pt" viewBox="0 0 834.000000 834.000000"
 preserveAspectRatio="xMidYMid meet">

<g transform="translate(0.000000,834.000000) scale(0.100000,-0.100000)"
fill="#000000" stroke="none">
<path d="M0 4170 l0 -4170 4170 0 4170 0 0 4170 0 4170 -4170 0 -4170 0 0
-4170z m3054 561 c25 -13 60 -39 76 -59 54 -66 60 -105 60 -423 0 -335 5 -319
-96 -319 l-64 0 0 115 c0 131 -11 163 -63 195 -45 28 -159 28 -204 0 -49 -30
-58 -54 -63 -185 l-5 -120 -57 -3 c-105 -5 -98 -27 -98 329 0 342 2 354 63
417 64 67 119 82 283 78 101 -2 129 -7 168 -25z m707 18 c72 -16 124 -65 145
-136 13 -44 15 -97 12 -291 -3 -222 -4 -240 -25 -279 -50 -93 -95 -105 -388
-101 l-230 3 -3 394 c-1 282 1 398 9 407 15 18 401 20 480 3z m656 -7 c17 -9
35 -8 85 4 44 12 88 15 148 12 118 -7 183 -42 218 -118 14 -29 17 -84 20 -344
2 -170 1 -320 -3 -333 -5 -22 -10 -23 -94 -23 -83 0 -89 1 -95 23 -3 12 -6
151 -6 310 l0 287 -70 0 c-70 0 -70 0 -70 -27 0 -16 0 -146 0 -291 0 -167 -3
-269 -10 -282 -9 -18 -21 -20 -94 -20 -67 0 -85 3 -90 16 -3 9 -6 148 -6 309
l0 293 -59 4 c-100 5 -90 37 -93 -310 l-3 -307 -90 0 -90 0 0 335 0 335 24 43
c45 78 110 103 256 99 55 -2 110 -9 122 -15z m741 10 c9 -7 12 -95 10 -408
l-3 -399 -90 0 -90 0 -3 394 c-1 282 1 398 9 407 13 15 145 20 167 6z m649
-20 c24 -12 55 -41 70 -64 l28 -42 0 -340 0 -341 -90 0 -90 0 -3 308 c-2 235
-5 307 -15 308 -6 0 -64 0 -127 0 l-115 0 -5 -308 c-3 -169 -7 -309 -8 -310
-1 -2 -42 -3 -91 -3 -72 0 -90 3 -95 16 -11 29 -7 764 5 785 10 20 19 20 252
17 229 -3 244 -4 284 -26z"/>
<path d="M2815 4548 c-36 -19 -55 -52 -55 -94 0 -78 73 -130 143 -101 45 19
67 52 67 102 -1 79 -86 131 -155 93z"/>
<path d="M3470 4562 c-6 -2 -10 -84 -10 -218 l0 -215 133 3 132 3 3 208 c2
172 0 208 -12 213 -16 6 -230 11 -246 6z"/>
</g>
</svg>
